%TF.GenerationSoftware,KiCad,Pcbnew,6.0.2+dfsg-1*%
%TF.CreationDate,2022-09-05T16:28:11+02:00*%
%TF.ProjectId,power-module,706f7765-722d-46d6-9f64-756c652e6b69,rev?*%
%TF.SameCoordinates,Original*%
%TF.FileFunction,Copper,L2,Bot*%
%TF.FilePolarity,Positive*%
%FSLAX46Y46*%
G04 Gerber Fmt 4.6, Leading zero omitted, Abs format (unit mm)*
G04 Created by KiCad (PCBNEW 6.0.2+dfsg-1) date 2022-09-05 16:28:11*
%MOMM*%
%LPD*%
G01*
G04 APERTURE LIST*
%TA.AperFunction,ComponentPad*%
%ADD10R,1.700000X1.700000*%
%TD*%
%TA.AperFunction,ComponentPad*%
%ADD11O,1.700000X1.700000*%
%TD*%
%TA.AperFunction,ViaPad*%
%ADD12C,0.800000*%
%TD*%
G04 APERTURE END LIST*
D10*
%TO.P,J1,1,Pin_1*%
%TO.N,+28V*%
X167100000Y-88775000D03*
D11*
%TO.P,J1,2,Pin_2*%
%TO.N,GND*%
X167100000Y-91315000D03*
%TO.P,J1,3,Pin_3*%
%TO.N,+3V3*%
X167100000Y-93855000D03*
%TD*%
D12*
%TO.N,GND*%
X155800000Y-94750000D03*
X145800000Y-93000000D03*
X159500000Y-99800000D03*
X161750000Y-87250000D03*
X148250000Y-81750000D03*
X167600000Y-99800000D03*
X163150000Y-94200000D03*
%TD*%
%TA.AperFunction,Conductor*%
%TO.N,GND*%
G36*
X169041621Y-78420502D02*
G01*
X169088114Y-78474158D01*
X169099500Y-78526500D01*
X169099500Y-106273760D01*
X169079498Y-106341881D01*
X169025842Y-106388374D01*
X168973760Y-106399760D01*
X144799900Y-106449500D01*
X141126275Y-106449500D01*
X141058154Y-106429498D01*
X141011661Y-106375842D01*
X141000275Y-106323725D01*
X140973999Y-91582966D01*
X165768257Y-91582966D01*
X165798565Y-91717446D01*
X165801645Y-91727275D01*
X165881770Y-91924603D01*
X165886413Y-91933794D01*
X165997694Y-92115388D01*
X166003777Y-92123699D01*
X166143213Y-92284667D01*
X166150580Y-92291883D01*
X166314434Y-92427916D01*
X166322881Y-92433831D01*
X166506756Y-92541279D01*
X166516042Y-92545729D01*
X166715001Y-92621703D01*
X166729866Y-92626022D01*
X166729289Y-92628008D01*
X166784260Y-92657082D01*
X166819110Y-92718936D01*
X166814988Y-92789813D01*
X166773201Y-92847209D01*
X166731930Y-92868228D01*
X166710489Y-92874538D01*
X166710484Y-92874540D01*
X166704572Y-92876280D01*
X166522002Y-92971726D01*
X166517201Y-92975586D01*
X166517198Y-92975588D01*
X166506971Y-92983811D01*
X166361447Y-93100815D01*
X166229024Y-93258630D01*
X166226056Y-93264028D01*
X166226053Y-93264033D01*
X166219315Y-93276290D01*
X166129776Y-93439162D01*
X166067484Y-93635532D01*
X166066798Y-93641649D01*
X166066797Y-93641653D01*
X166045207Y-93834137D01*
X166044520Y-93840262D01*
X166061759Y-94045553D01*
X166118544Y-94243586D01*
X166121359Y-94249063D01*
X166121360Y-94249066D01*
X166142247Y-94289707D01*
X166212712Y-94426818D01*
X166340677Y-94588270D01*
X166497564Y-94721791D01*
X166677398Y-94822297D01*
X166772238Y-94853113D01*
X166867471Y-94884056D01*
X166867475Y-94884057D01*
X166873329Y-94885959D01*
X167077894Y-94910351D01*
X167084029Y-94909879D01*
X167084031Y-94909879D01*
X167140039Y-94905569D01*
X167283300Y-94894546D01*
X167289230Y-94892890D01*
X167289232Y-94892890D01*
X167475797Y-94840800D01*
X167475796Y-94840800D01*
X167481725Y-94839145D01*
X167487214Y-94836372D01*
X167487220Y-94836370D01*
X167660116Y-94749033D01*
X167665610Y-94746258D01*
X167827951Y-94619424D01*
X167962564Y-94463472D01*
X167983387Y-94426818D01*
X168061276Y-94289707D01*
X168064323Y-94284344D01*
X168129351Y-94088863D01*
X168155171Y-93884474D01*
X168155583Y-93855000D01*
X168135480Y-93649970D01*
X168075935Y-93452749D01*
X167979218Y-93270849D01*
X167905859Y-93180902D01*
X167852906Y-93115975D01*
X167852903Y-93115972D01*
X167849011Y-93111200D01*
X167831786Y-93096950D01*
X167695025Y-92983811D01*
X167695021Y-92983809D01*
X167690275Y-92979882D01*
X167509055Y-92881897D01*
X167458183Y-92866150D01*
X167399025Y-92826899D01*
X167370477Y-92761895D01*
X167381605Y-92691776D01*
X167428876Y-92638804D01*
X167459235Y-92625099D01*
X167592255Y-92585191D01*
X167601842Y-92581433D01*
X167793095Y-92487739D01*
X167801945Y-92482464D01*
X167975328Y-92358792D01*
X167983200Y-92352139D01*
X168134052Y-92201812D01*
X168140730Y-92193965D01*
X168265003Y-92021020D01*
X168270313Y-92012183D01*
X168364670Y-91821267D01*
X168368469Y-91811672D01*
X168430377Y-91607910D01*
X168432555Y-91597837D01*
X168433986Y-91586962D01*
X168431775Y-91572778D01*
X168418617Y-91569000D01*
X165783225Y-91569000D01*
X165769694Y-91572973D01*
X165768257Y-91582966D01*
X140973999Y-91582966D01*
X140973048Y-91049183D01*
X165764389Y-91049183D01*
X165765912Y-91057607D01*
X165778292Y-91061000D01*
X168418344Y-91061000D01*
X168431875Y-91057027D01*
X168433180Y-91047947D01*
X168391214Y-90880875D01*
X168387894Y-90871124D01*
X168302972Y-90675814D01*
X168298105Y-90666739D01*
X168182426Y-90487926D01*
X168176136Y-90479757D01*
X168032806Y-90322240D01*
X168025273Y-90315215D01*
X167858139Y-90183222D01*
X167849552Y-90177517D01*
X167663117Y-90074599D01*
X167653705Y-90070369D01*
X167653435Y-90070273D01*
X167653341Y-90070205D01*
X167648989Y-90068249D01*
X167649393Y-90067351D01*
X167595899Y-90028679D01*
X167569983Y-89962581D01*
X167583917Y-89892965D01*
X167633276Y-89841934D01*
X167695495Y-89825500D01*
X167969748Y-89825500D01*
X167975816Y-89824293D01*
X168016061Y-89816288D01*
X168016062Y-89816288D01*
X168028231Y-89813867D01*
X168094552Y-89769552D01*
X168138867Y-89703231D01*
X168150500Y-89644748D01*
X168150500Y-87905252D01*
X168138867Y-87846769D01*
X168094552Y-87780448D01*
X168028231Y-87736133D01*
X168016062Y-87733712D01*
X168016061Y-87733712D01*
X167975816Y-87725707D01*
X167969748Y-87724500D01*
X166230252Y-87724500D01*
X166224184Y-87725707D01*
X166183939Y-87733712D01*
X166183938Y-87733712D01*
X166171769Y-87736133D01*
X166105448Y-87780448D01*
X166061133Y-87846769D01*
X166049500Y-87905252D01*
X166049500Y-89644748D01*
X166061133Y-89703231D01*
X166105448Y-89769552D01*
X166171769Y-89813867D01*
X166183938Y-89816288D01*
X166183939Y-89816288D01*
X166224184Y-89824293D01*
X166230252Y-89825500D01*
X166505233Y-89825500D01*
X166573354Y-89845502D01*
X166619847Y-89899158D01*
X166629951Y-89969432D01*
X166600457Y-90034012D01*
X166563413Y-90063263D01*
X166378463Y-90159542D01*
X166369738Y-90165036D01*
X166199433Y-90292905D01*
X166191726Y-90299748D01*
X166044590Y-90453717D01*
X166038104Y-90461727D01*
X165918098Y-90637649D01*
X165913000Y-90646623D01*
X165823338Y-90839783D01*
X165819775Y-90849470D01*
X165764389Y-91049183D01*
X140973048Y-91049183D01*
X140950726Y-78526725D01*
X140970607Y-78458568D01*
X141024179Y-78411980D01*
X141076726Y-78400500D01*
X168973500Y-78400500D01*
X169041621Y-78420502D01*
G37*
%TD.AperFunction*%
%TD*%
M02*
