%TF.GenerationSoftware,KiCad,Pcbnew,6.0.2+dfsg-1*%
%TF.CreationDate,2022-09-05T16:28:11+02:00*%
%TF.ProjectId,power-module,706f7765-722d-46d6-9f64-756c652e6b69,rev?*%
%TF.SameCoordinates,Original*%
%TF.FileFunction,Copper,L1,Top*%
%TF.FilePolarity,Positive*%
%FSLAX46Y46*%
G04 Gerber Fmt 4.6, Leading zero omitted, Abs format (unit mm)*
G04 Created by KiCad (PCBNEW 6.0.2+dfsg-1) date 2022-09-05 16:28:11*
%MOMM*%
%LPD*%
G01*
G04 APERTURE LIST*
G04 Aperture macros list*
%AMRoundRect*
0 Rectangle with rounded corners*
0 $1 Rounding radius*
0 $2 $3 $4 $5 $6 $7 $8 $9 X,Y pos of 4 corners*
0 Add a 4 corners polygon primitive as box body*
4,1,4,$2,$3,$4,$5,$6,$7,$8,$9,$2,$3,0*
0 Add four circle primitives for the rounded corners*
1,1,$1+$1,$2,$3*
1,1,$1+$1,$4,$5*
1,1,$1+$1,$6,$7*
1,1,$1+$1,$8,$9*
0 Add four rect primitives between the rounded corners*
20,1,$1+$1,$2,$3,$4,$5,0*
20,1,$1+$1,$4,$5,$6,$7,0*
20,1,$1+$1,$6,$7,$8,$9,0*
20,1,$1+$1,$8,$9,$2,$3,0*%
G04 Aperture macros list end*
%TA.AperFunction,SMDPad,CuDef*%
%ADD10R,4.600000X1.100000*%
%TD*%
%TA.AperFunction,SMDPad,CuDef*%
%ADD11R,9.400000X10.800000*%
%TD*%
%TA.AperFunction,ComponentPad*%
%ADD12R,1.700000X1.700000*%
%TD*%
%TA.AperFunction,ComponentPad*%
%ADD13O,1.700000X1.700000*%
%TD*%
%TA.AperFunction,SMDPad,CuDef*%
%ADD14RoundRect,0.250000X-1.500000X-0.550000X1.500000X-0.550000X1.500000X0.550000X-1.500000X0.550000X0*%
%TD*%
%TA.AperFunction,SMDPad,CuDef*%
%ADD15R,0.900000X1.200000*%
%TD*%
%TA.AperFunction,SMDPad,CuDef*%
%ADD16R,3.500000X1.800000*%
%TD*%
%TA.AperFunction,SMDPad,CuDef*%
%ADD17R,2.900000X5.400000*%
%TD*%
%TA.AperFunction,ViaPad*%
%ADD18C,0.800000*%
%TD*%
%TA.AperFunction,Conductor*%
%ADD19C,1.000000*%
%TD*%
G04 APERTURE END LIST*
D10*
%TO.P,U1,1,VIN*%
%TO.N,+28V*%
X156025000Y-103000000D03*
%TO.P,U1,2,OUT*%
%TO.N,Net-(D1-Pad1)*%
X156025000Y-101300000D03*
%TO.P,U1,3,GND*%
%TO.N,GND*%
X156025000Y-99600000D03*
D11*
X146875000Y-99600000D03*
D10*
%TO.P,U1,4,FB*%
%TO.N,Net-(D2-Pad2)*%
X156025000Y-97900000D03*
%TO.P,U1,5,~{ON}/OFF*%
%TO.N,GND*%
X156025000Y-96200000D03*
%TD*%
D12*
%TO.P,J1,1,Pin_1*%
%TO.N,+28V*%
X167100000Y-88775000D03*
D13*
%TO.P,J1,2,Pin_2*%
%TO.N,GND*%
X167100000Y-91315000D03*
%TO.P,J1,3,Pin_3*%
%TO.N,+3V3*%
X167100000Y-93855000D03*
%TD*%
D14*
%TO.P,C1,1*%
%TO.N,+28V*%
X161150000Y-102450000D03*
%TO.P,C1,2*%
%TO.N,GND*%
X166750000Y-102450000D03*
%TD*%
%TO.P,C2,1*%
%TO.N,Net-(D2-Pad2)*%
X161100000Y-82450000D03*
%TO.P,C2,2*%
%TO.N,GND*%
X166700000Y-82450000D03*
%TD*%
D15*
%TO.P,D2,1,K*%
%TO.N,+3V3*%
X167850000Y-97350000D03*
%TO.P,D2,2,A*%
%TO.N,Net-(D2-Pad2)*%
X164550000Y-97350000D03*
%TD*%
D16*
%TO.P,D1,1,K*%
%TO.N,Net-(D1-Pad1)*%
X157600000Y-91350000D03*
%TO.P,D1,2,A*%
%TO.N,GND*%
X162600000Y-91350000D03*
%TD*%
D17*
%TO.P,L1,1,1*%
%TO.N,Net-(D1-Pad1)*%
X143550000Y-85600000D03*
%TO.P,L1,2,2*%
%TO.N,Net-(D2-Pad2)*%
X153250000Y-85600000D03*
%TD*%
D18*
%TO.N,GND*%
X155800000Y-94750000D03*
X145800000Y-93000000D03*
X159500000Y-99800000D03*
X161750000Y-87250000D03*
X148250000Y-81750000D03*
X167600000Y-99800000D03*
X163150000Y-94200000D03*
%TD*%
D19*
%TO.N,+28V*%
X165550489Y-90324511D02*
X165550489Y-96050489D01*
X165550489Y-96050489D02*
X165750000Y-96250000D01*
X167100000Y-88775000D02*
X165550489Y-90324511D01*
X161899022Y-102450000D02*
X161150000Y-102450000D01*
X156025000Y-103000000D02*
X160600000Y-103000000D01*
X165750000Y-96250000D02*
X165750000Y-98599022D01*
X165750000Y-98599022D02*
X161899022Y-102450000D01*
X160600000Y-103000000D02*
X161150000Y-102450000D01*
%TO.N,Net-(D2-Pad2)*%
X156025000Y-97900000D02*
X164000000Y-97900000D01*
X161100000Y-82450000D02*
X156400000Y-82450000D01*
X160150000Y-97250000D02*
X159500000Y-97900000D01*
X155899022Y-85600000D02*
X160150000Y-89850978D01*
X159500000Y-97900000D02*
X156025000Y-97900000D01*
X156400000Y-82450000D02*
X153250000Y-85600000D01*
X160150000Y-89850978D02*
X160150000Y-97250000D01*
X164000000Y-97900000D02*
X164550000Y-97350000D01*
X153250000Y-85600000D02*
X155899022Y-85600000D01*
%TO.N,Net-(D1-Pad1)*%
X153475978Y-101300000D02*
X156025000Y-101300000D01*
X149300000Y-91350000D02*
X143550000Y-85600000D01*
X153025489Y-100849511D02*
X153475978Y-101300000D01*
X156750000Y-91350000D02*
X153025489Y-95074511D01*
X157600000Y-91350000D02*
X149300000Y-91350000D01*
X153025489Y-95074511D02*
X153025489Y-100849511D01*
X157600000Y-91350000D02*
X156750000Y-91350000D01*
%TO.N,+3V3*%
X167100000Y-96600000D02*
X167850000Y-97350000D01*
X167100000Y-93855000D02*
X167100000Y-96600000D01*
%TD*%
%TA.AperFunction,Conductor*%
%TO.N,GND*%
G36*
X169041621Y-78420502D02*
G01*
X169088114Y-78474158D01*
X169099500Y-78526500D01*
X169099500Y-81469989D01*
X169079498Y-81538110D01*
X169025842Y-81584603D01*
X168955568Y-81594707D01*
X168890988Y-81565213D01*
X168866356Y-81536292D01*
X168801937Y-81432193D01*
X168792901Y-81420792D01*
X168678171Y-81306261D01*
X168666760Y-81297249D01*
X168528757Y-81212184D01*
X168515576Y-81206037D01*
X168361290Y-81154862D01*
X168347914Y-81151995D01*
X168253562Y-81142328D01*
X168247145Y-81142000D01*
X166972115Y-81142000D01*
X166956876Y-81146475D01*
X166955671Y-81147865D01*
X166954000Y-81155548D01*
X166954000Y-83739884D01*
X166958475Y-83755123D01*
X166959865Y-83756328D01*
X166967548Y-83757999D01*
X168247095Y-83757999D01*
X168253614Y-83757662D01*
X168349206Y-83747743D01*
X168362600Y-83744851D01*
X168516784Y-83693412D01*
X168529962Y-83687239D01*
X168667807Y-83601937D01*
X168679208Y-83592901D01*
X168793739Y-83478171D01*
X168802751Y-83466760D01*
X168866240Y-83363761D01*
X168919012Y-83316268D01*
X168989084Y-83304844D01*
X169054207Y-83333118D01*
X169093707Y-83392112D01*
X169099500Y-83429877D01*
X169099500Y-101389191D01*
X169079498Y-101457312D01*
X169025842Y-101503805D01*
X168955568Y-101513909D01*
X168890988Y-101484415D01*
X168866355Y-101455494D01*
X168851932Y-101432187D01*
X168842901Y-101420792D01*
X168728171Y-101306261D01*
X168716760Y-101297249D01*
X168578757Y-101212184D01*
X168565576Y-101206037D01*
X168411290Y-101154862D01*
X168397914Y-101151995D01*
X168303562Y-101142328D01*
X168297145Y-101142000D01*
X167022115Y-101142000D01*
X167006876Y-101146475D01*
X167005671Y-101147865D01*
X167004000Y-101155548D01*
X167004000Y-103739884D01*
X167008475Y-103755123D01*
X167009865Y-103756328D01*
X167017548Y-103757999D01*
X168297095Y-103757999D01*
X168303614Y-103757662D01*
X168399206Y-103747743D01*
X168412600Y-103744851D01*
X168566784Y-103693412D01*
X168579962Y-103687239D01*
X168717807Y-103601937D01*
X168729208Y-103592901D01*
X168843739Y-103478171D01*
X168852753Y-103466757D01*
X168866240Y-103444877D01*
X168919011Y-103397383D01*
X168989083Y-103385959D01*
X169054207Y-103414232D01*
X169093707Y-103473226D01*
X169099500Y-103510992D01*
X169099500Y-106273760D01*
X169079498Y-106341881D01*
X169025842Y-106388374D01*
X168973760Y-106399760D01*
X144799900Y-106449500D01*
X141126275Y-106449500D01*
X141058154Y-106429498D01*
X141011661Y-106375842D01*
X141000275Y-106323725D01*
X140997995Y-105044669D01*
X141667001Y-105044669D01*
X141667371Y-105051490D01*
X141672895Y-105102352D01*
X141676521Y-105117604D01*
X141721676Y-105238054D01*
X141730214Y-105253649D01*
X141806715Y-105355724D01*
X141819276Y-105368285D01*
X141921351Y-105444786D01*
X141936946Y-105453324D01*
X142057394Y-105498478D01*
X142072649Y-105502105D01*
X142123514Y-105507631D01*
X142130328Y-105508000D01*
X146602885Y-105508000D01*
X146618124Y-105503525D01*
X146619329Y-105502135D01*
X146621000Y-105494452D01*
X146621000Y-99872115D01*
X146616525Y-99856876D01*
X146615135Y-99855671D01*
X146607452Y-99854000D01*
X141685116Y-99854000D01*
X141669877Y-99858475D01*
X141668672Y-99859865D01*
X141667001Y-99867548D01*
X141667001Y-105044669D01*
X140997995Y-105044669D01*
X140987805Y-99327885D01*
X141667000Y-99327885D01*
X141671475Y-99343124D01*
X141672865Y-99344329D01*
X141680548Y-99346000D01*
X146602885Y-99346000D01*
X146618124Y-99341525D01*
X146619329Y-99340135D01*
X146621000Y-99332452D01*
X146621000Y-93710116D01*
X146616525Y-93694877D01*
X146615135Y-93693672D01*
X146607452Y-93692001D01*
X142130331Y-93692001D01*
X142123510Y-93692371D01*
X142072648Y-93697895D01*
X142057396Y-93701521D01*
X141936946Y-93746676D01*
X141921351Y-93755214D01*
X141819276Y-93831715D01*
X141806715Y-93844276D01*
X141730214Y-93946351D01*
X141721676Y-93961946D01*
X141676522Y-94082394D01*
X141672895Y-94097649D01*
X141667369Y-94148514D01*
X141667000Y-94155328D01*
X141667000Y-99327885D01*
X140987805Y-99327885D01*
X140968183Y-88319748D01*
X141899500Y-88319748D01*
X141911133Y-88378231D01*
X141955448Y-88444552D01*
X142021769Y-88488867D01*
X142033938Y-88491288D01*
X142033939Y-88491288D01*
X142074184Y-88499293D01*
X142080252Y-88500500D01*
X145019748Y-88500500D01*
X145025816Y-88499293D01*
X145066061Y-88491288D01*
X145066062Y-88491288D01*
X145078231Y-88488867D01*
X145144552Y-88444552D01*
X145151443Y-88434239D01*
X145151445Y-88434237D01*
X145163134Y-88416743D01*
X145217611Y-88371215D01*
X145288054Y-88362367D01*
X145356994Y-88397650D01*
X147072838Y-90113495D01*
X148784418Y-91825075D01*
X148790271Y-91831340D01*
X148827831Y-91874396D01*
X148879473Y-91910690D01*
X148884758Y-91914616D01*
X148928476Y-91948895D01*
X148928480Y-91948897D01*
X148934457Y-91953584D01*
X148941380Y-91956710D01*
X148944328Y-91958495D01*
X148957288Y-91965887D01*
X148960334Y-91967520D01*
X148966547Y-91971887D01*
X149025366Y-91994820D01*
X149031445Y-91997375D01*
X149088984Y-92023355D01*
X149096455Y-92024740D01*
X149099723Y-92025764D01*
X149114164Y-92029877D01*
X149117437Y-92030717D01*
X149124513Y-92033476D01*
X149169183Y-92039356D01*
X149187106Y-92041716D01*
X149193623Y-92042748D01*
X149235035Y-92050423D01*
X149255692Y-92054252D01*
X149263272Y-92053815D01*
X149263273Y-92053815D01*
X149317144Y-92050709D01*
X149324396Y-92050500D01*
X154754654Y-92050500D01*
X154822775Y-92070502D01*
X154869268Y-92124158D01*
X154879372Y-92194432D01*
X154849878Y-92259012D01*
X154843749Y-92265595D01*
X152550414Y-94558929D01*
X152544149Y-94564782D01*
X152501093Y-94602342D01*
X152474015Y-94640871D01*
X152464806Y-94653974D01*
X152460873Y-94659269D01*
X152426594Y-94702987D01*
X152426592Y-94702991D01*
X152421905Y-94708968D01*
X152418779Y-94715891D01*
X152416994Y-94718839D01*
X152409602Y-94731799D01*
X152407969Y-94734845D01*
X152403602Y-94741058D01*
X152400843Y-94748135D01*
X152380669Y-94799877D01*
X152378114Y-94805956D01*
X152352134Y-94863495D01*
X152350749Y-94870966D01*
X152349725Y-94874234D01*
X152345612Y-94888675D01*
X152344772Y-94891948D01*
X152342013Y-94899024D01*
X152341022Y-94906554D01*
X152333921Y-94960493D01*
X152305199Y-95025421D01*
X152245934Y-95064513D01*
X152174943Y-95065358D01*
X152114764Y-95027689D01*
X152084504Y-94963464D01*
X152082999Y-94944048D01*
X152082999Y-94155331D01*
X152082629Y-94148510D01*
X152077105Y-94097648D01*
X152073479Y-94082396D01*
X152028324Y-93961946D01*
X152019786Y-93946351D01*
X151943285Y-93844276D01*
X151930724Y-93831715D01*
X151828649Y-93755214D01*
X151813054Y-93746676D01*
X151692606Y-93701522D01*
X151677351Y-93697895D01*
X151626486Y-93692369D01*
X151619672Y-93692000D01*
X147147115Y-93692000D01*
X147131876Y-93696475D01*
X147130671Y-93697865D01*
X147129000Y-93705548D01*
X147129000Y-105489884D01*
X147133475Y-105505123D01*
X147134865Y-105506328D01*
X147142548Y-105507999D01*
X151619669Y-105507999D01*
X151626490Y-105507629D01*
X151677352Y-105502105D01*
X151692604Y-105498479D01*
X151813054Y-105453324D01*
X151828649Y-105444786D01*
X151930724Y-105368285D01*
X151943285Y-105355724D01*
X152019786Y-105253649D01*
X152028324Y-105238054D01*
X152073478Y-105117606D01*
X152077105Y-105102351D01*
X152082631Y-105051486D01*
X152083000Y-105044672D01*
X152083000Y-100982340D01*
X152103002Y-100914219D01*
X152156658Y-100867726D01*
X152226932Y-100857622D01*
X152291512Y-100887116D01*
X152329896Y-100946842D01*
X152334085Y-100967189D01*
X152340213Y-101017831D01*
X152342898Y-101024938D01*
X152343707Y-101028231D01*
X152347666Y-101042702D01*
X152348655Y-101045978D01*
X152349962Y-101053465D01*
X152353017Y-101060424D01*
X152353017Y-101060425D01*
X152375336Y-101111271D01*
X152377828Y-101117377D01*
X152391993Y-101154862D01*
X152400144Y-101176434D01*
X152404443Y-101182689D01*
X152406024Y-101185714D01*
X152413314Y-101198810D01*
X152415055Y-101201754D01*
X152418110Y-101208713D01*
X152422735Y-101214741D01*
X152422736Y-101214742D01*
X152456531Y-101258784D01*
X152460408Y-101264120D01*
X152491870Y-101309897D01*
X152491875Y-101309903D01*
X152496177Y-101316162D01*
X152501851Y-101321217D01*
X152542137Y-101357111D01*
X152547414Y-101362092D01*
X152960402Y-101775081D01*
X152966255Y-101781347D01*
X152995290Y-101814631D01*
X153003809Y-101824396D01*
X153055451Y-101860690D01*
X153060736Y-101864616D01*
X153104454Y-101898895D01*
X153104458Y-101898897D01*
X153110435Y-101903584D01*
X153117358Y-101906710D01*
X153120306Y-101908495D01*
X153133266Y-101915887D01*
X153136312Y-101917520D01*
X153142525Y-101921887D01*
X153185255Y-101938547D01*
X153201344Y-101944820D01*
X153207423Y-101947375D01*
X153264962Y-101973355D01*
X153272433Y-101974740D01*
X153275701Y-101975764D01*
X153290142Y-101979877D01*
X153293415Y-101980717D01*
X153300491Y-101983476D01*
X153345161Y-101989356D01*
X153363084Y-101991716D01*
X153369601Y-101992748D01*
X153411013Y-102000423D01*
X153431670Y-102004252D01*
X153439250Y-102003815D01*
X153439251Y-102003815D01*
X153493122Y-102000709D01*
X153500374Y-102000500D01*
X153551128Y-102000500D01*
X153621129Y-102021734D01*
X153646769Y-102038867D01*
X153646953Y-102038904D01*
X153695642Y-102078142D01*
X153718061Y-102145506D01*
X153700501Y-102214297D01*
X153651124Y-102260267D01*
X153646769Y-102261133D01*
X153636452Y-102268026D01*
X153636451Y-102268027D01*
X153606390Y-102288114D01*
X153580448Y-102305448D01*
X153536133Y-102371769D01*
X153524500Y-102430252D01*
X153524500Y-103569748D01*
X153536133Y-103628231D01*
X153580448Y-103694552D01*
X153646769Y-103738867D01*
X153658938Y-103741288D01*
X153658939Y-103741288D01*
X153692709Y-103748005D01*
X153705252Y-103750500D01*
X158344748Y-103750500D01*
X158371705Y-103745138D01*
X158391060Y-103741288D01*
X158403231Y-103738867D01*
X158428871Y-103721734D01*
X158498872Y-103700500D01*
X160571359Y-103700500D01*
X160579929Y-103700792D01*
X160629354Y-103704162D01*
X160629358Y-103704162D01*
X160636930Y-103704678D01*
X160644406Y-103703373D01*
X160644409Y-103703373D01*
X160699132Y-103693822D01*
X160705658Y-103692859D01*
X160752098Y-103687239D01*
X160768320Y-103685276D01*
X160775427Y-103682591D01*
X160778720Y-103681782D01*
X160793191Y-103677823D01*
X160796467Y-103676834D01*
X160803954Y-103675527D01*
X160810914Y-103672472D01*
X160861760Y-103650153D01*
X160867866Y-103647661D01*
X160919818Y-103628030D01*
X160919820Y-103628029D01*
X160926923Y-103625345D01*
X160933178Y-103621046D01*
X160936203Y-103619465D01*
X160949299Y-103612175D01*
X160952243Y-103610434D01*
X160959202Y-103607379D01*
X160965234Y-103602751D01*
X161009273Y-103568958D01*
X161014609Y-103565081D01*
X161060386Y-103533619D01*
X161060392Y-103533614D01*
X161066651Y-103529312D01*
X161099288Y-103492681D01*
X161159538Y-103455125D01*
X161193364Y-103450500D01*
X162703834Y-103450500D01*
X162721752Y-103448806D01*
X162727722Y-103448242D01*
X162727723Y-103448242D01*
X162735369Y-103447519D01*
X162863184Y-103402634D01*
X162870754Y-103397042D01*
X162870757Y-103397041D01*
X162964579Y-103327742D01*
X162972150Y-103322150D01*
X162984665Y-103305206D01*
X163047041Y-103220757D01*
X163047042Y-103220754D01*
X163052634Y-103213184D01*
X163097519Y-103085369D01*
X163100500Y-103053834D01*
X163100500Y-103047095D01*
X164492001Y-103047095D01*
X164492338Y-103053614D01*
X164502257Y-103149206D01*
X164505149Y-103162600D01*
X164556588Y-103316784D01*
X164562761Y-103329962D01*
X164648063Y-103467807D01*
X164657099Y-103479208D01*
X164771829Y-103593739D01*
X164783240Y-103602751D01*
X164921243Y-103687816D01*
X164934424Y-103693963D01*
X165088710Y-103745138D01*
X165102086Y-103748005D01*
X165196438Y-103757672D01*
X165202854Y-103758000D01*
X166477885Y-103758000D01*
X166493124Y-103753525D01*
X166494329Y-103752135D01*
X166496000Y-103744452D01*
X166496000Y-102722115D01*
X166491525Y-102706876D01*
X166490135Y-102705671D01*
X166482452Y-102704000D01*
X164510116Y-102704000D01*
X164494877Y-102708475D01*
X164493672Y-102709865D01*
X164492001Y-102717548D01*
X164492001Y-103047095D01*
X163100500Y-103047095D01*
X163100500Y-102291368D01*
X163120502Y-102223247D01*
X163137405Y-102202273D01*
X163161793Y-102177885D01*
X164492000Y-102177885D01*
X164496475Y-102193124D01*
X164497865Y-102194329D01*
X164505548Y-102196000D01*
X166477885Y-102196000D01*
X166493124Y-102191525D01*
X166494329Y-102190135D01*
X166496000Y-102182452D01*
X166496000Y-101160116D01*
X166491525Y-101144877D01*
X166490135Y-101143672D01*
X166482452Y-101142001D01*
X165202905Y-101142001D01*
X165196386Y-101142338D01*
X165100794Y-101152257D01*
X165087400Y-101155149D01*
X164933216Y-101206588D01*
X164920038Y-101212761D01*
X164782193Y-101298063D01*
X164770792Y-101307099D01*
X164656261Y-101421829D01*
X164647249Y-101433240D01*
X164562184Y-101571243D01*
X164556037Y-101584424D01*
X164504862Y-101738710D01*
X164501995Y-101752086D01*
X164492328Y-101846438D01*
X164492000Y-101852855D01*
X164492000Y-102177885D01*
X163161793Y-102177885D01*
X166225067Y-99114611D01*
X166231333Y-99108757D01*
X166268671Y-99076185D01*
X166274396Y-99071191D01*
X166278761Y-99064980D01*
X166278764Y-99064977D01*
X166310705Y-99019529D01*
X166314638Y-99014234D01*
X166348893Y-98970546D01*
X166353583Y-98964565D01*
X166356711Y-98957638D01*
X166358486Y-98954707D01*
X166365903Y-98941704D01*
X166367519Y-98938690D01*
X166371887Y-98932475D01*
X166374646Y-98925399D01*
X166374648Y-98925395D01*
X166394819Y-98873658D01*
X166397375Y-98867577D01*
X166420231Y-98816957D01*
X166420231Y-98816956D01*
X166423355Y-98810038D01*
X166424739Y-98802572D01*
X166425757Y-98799323D01*
X166429877Y-98784858D01*
X166430717Y-98781585D01*
X166433476Y-98774509D01*
X166441716Y-98711916D01*
X166442748Y-98705399D01*
X166452868Y-98650797D01*
X166454252Y-98643330D01*
X166450709Y-98581883D01*
X166450500Y-98574631D01*
X166450500Y-97245347D01*
X166470502Y-97177226D01*
X166524158Y-97130733D01*
X166594432Y-97120629D01*
X166659012Y-97150123D01*
X166665596Y-97156252D01*
X167162596Y-97653253D01*
X167196621Y-97715565D01*
X167199500Y-97742348D01*
X167199500Y-97969748D01*
X167211133Y-98028231D01*
X167255448Y-98094552D01*
X167321769Y-98138867D01*
X167333938Y-98141288D01*
X167333939Y-98141288D01*
X167350500Y-98144582D01*
X167380252Y-98150500D01*
X168319748Y-98150500D01*
X168349500Y-98144582D01*
X168366061Y-98141288D01*
X168366062Y-98141288D01*
X168378231Y-98138867D01*
X168444552Y-98094552D01*
X168488867Y-98028231D01*
X168500500Y-97969748D01*
X168500500Y-97635469D01*
X168506465Y-97597160D01*
X168540837Y-97489461D01*
X168540838Y-97489458D01*
X168543146Y-97482225D01*
X168554678Y-97313070D01*
X168525527Y-97146046D01*
X168511126Y-97113239D01*
X168500500Y-97062594D01*
X168500500Y-96730252D01*
X168488867Y-96671769D01*
X168444552Y-96605448D01*
X168378231Y-96561133D01*
X168366062Y-96558712D01*
X168366061Y-96558712D01*
X168325816Y-96550707D01*
X168319748Y-96549500D01*
X168092347Y-96549500D01*
X168024226Y-96529498D01*
X168003251Y-96512595D01*
X167837404Y-96346747D01*
X167803379Y-96284435D01*
X167800500Y-96257652D01*
X167800500Y-94698086D01*
X167820502Y-94629965D01*
X167831118Y-94615755D01*
X167958540Y-94468134D01*
X167958540Y-94468133D01*
X167962564Y-94463472D01*
X168064323Y-94284344D01*
X168129351Y-94088863D01*
X168155171Y-93884474D01*
X168155583Y-93855000D01*
X168135480Y-93649970D01*
X168075935Y-93452749D01*
X167979218Y-93270849D01*
X167905859Y-93180902D01*
X167852906Y-93115975D01*
X167852903Y-93115972D01*
X167849011Y-93111200D01*
X167836458Y-93100815D01*
X167695025Y-92983811D01*
X167695021Y-92983809D01*
X167690275Y-92979882D01*
X167509055Y-92881897D01*
X167458183Y-92866150D01*
X167399025Y-92826899D01*
X167370477Y-92761895D01*
X167381605Y-92691776D01*
X167428876Y-92638804D01*
X167459235Y-92625099D01*
X167592255Y-92585191D01*
X167601842Y-92581433D01*
X167793095Y-92487739D01*
X167801945Y-92482464D01*
X167975328Y-92358792D01*
X167983200Y-92352139D01*
X168134052Y-92201812D01*
X168140730Y-92193965D01*
X168265003Y-92021020D01*
X168270313Y-92012183D01*
X168364670Y-91821267D01*
X168368469Y-91811672D01*
X168430377Y-91607910D01*
X168432555Y-91597837D01*
X168433986Y-91586962D01*
X168431775Y-91572778D01*
X168418617Y-91569000D01*
X166972000Y-91569000D01*
X166903879Y-91548998D01*
X166857386Y-91495342D01*
X166846000Y-91443000D01*
X166846000Y-91187000D01*
X166866002Y-91118879D01*
X166919658Y-91072386D01*
X166972000Y-91061000D01*
X168418344Y-91061000D01*
X168431875Y-91057027D01*
X168433180Y-91047947D01*
X168391214Y-90880875D01*
X168387894Y-90871124D01*
X168302972Y-90675814D01*
X168298105Y-90666739D01*
X168182426Y-90487926D01*
X168176136Y-90479757D01*
X168032806Y-90322240D01*
X168025273Y-90315215D01*
X167858139Y-90183222D01*
X167849552Y-90177517D01*
X167663117Y-90074599D01*
X167653705Y-90070369D01*
X167653435Y-90070273D01*
X167653341Y-90070205D01*
X167648989Y-90068249D01*
X167649393Y-90067351D01*
X167595899Y-90028679D01*
X167569983Y-89962581D01*
X167583917Y-89892965D01*
X167633276Y-89841934D01*
X167695495Y-89825500D01*
X167969748Y-89825500D01*
X167975816Y-89824293D01*
X168016061Y-89816288D01*
X168016062Y-89816288D01*
X168028231Y-89813867D01*
X168094552Y-89769552D01*
X168138867Y-89703231D01*
X168145036Y-89672220D01*
X168149293Y-89650816D01*
X168150500Y-89644748D01*
X168150500Y-87905252D01*
X168138867Y-87846769D01*
X168094552Y-87780448D01*
X168028231Y-87736133D01*
X168016062Y-87733712D01*
X168016061Y-87733712D01*
X167975816Y-87725707D01*
X167969748Y-87724500D01*
X166230252Y-87724500D01*
X166224184Y-87725707D01*
X166183939Y-87733712D01*
X166183938Y-87733712D01*
X166171769Y-87736133D01*
X166105448Y-87780448D01*
X166061133Y-87846769D01*
X166049500Y-87905252D01*
X166049500Y-88782653D01*
X166029498Y-88850774D01*
X166012595Y-88871748D01*
X165075414Y-89808929D01*
X165069149Y-89814782D01*
X165026093Y-89852342D01*
X164997543Y-89892965D01*
X164989806Y-89903974D01*
X164985873Y-89909269D01*
X164951594Y-89952987D01*
X164951592Y-89952991D01*
X164946905Y-89958968D01*
X164943779Y-89965891D01*
X164941994Y-89968839D01*
X164934602Y-89981799D01*
X164932969Y-89984845D01*
X164928602Y-89991058D01*
X164911702Y-90034405D01*
X164910727Y-90036905D01*
X164867346Y-90093106D01*
X164800467Y-90116933D01*
X164731323Y-90100819D01*
X164713037Y-90086918D01*
X164712904Y-90087096D01*
X164603649Y-90005214D01*
X164588054Y-89996676D01*
X164467606Y-89951522D01*
X164452351Y-89947895D01*
X164401486Y-89942369D01*
X164394672Y-89942000D01*
X162872115Y-89942000D01*
X162856876Y-89946475D01*
X162855671Y-89947865D01*
X162854000Y-89955548D01*
X162854000Y-92739884D01*
X162858475Y-92755123D01*
X162859865Y-92756328D01*
X162867548Y-92757999D01*
X164394669Y-92757999D01*
X164401490Y-92757629D01*
X164452352Y-92752105D01*
X164467604Y-92748479D01*
X164588054Y-92703324D01*
X164603644Y-92694789D01*
X164648424Y-92661228D01*
X164714931Y-92636381D01*
X164784313Y-92651434D01*
X164834543Y-92701609D01*
X164849989Y-92762055D01*
X164849989Y-96021848D01*
X164849697Y-96030418D01*
X164845811Y-96087419D01*
X164847116Y-96094895D01*
X164847116Y-96094898D01*
X164856667Y-96149621D01*
X164857630Y-96156147D01*
X164865213Y-96218809D01*
X164867898Y-96225916D01*
X164868707Y-96229209D01*
X164872666Y-96243680D01*
X164873655Y-96246956D01*
X164874962Y-96254443D01*
X164878017Y-96261402D01*
X164878017Y-96261403D01*
X164900336Y-96312249D01*
X164902828Y-96318355D01*
X164925144Y-96377412D01*
X164922400Y-96378449D01*
X164933582Y-96434781D01*
X164907561Y-96500837D01*
X164849959Y-96542340D01*
X164808088Y-96549500D01*
X164080252Y-96549500D01*
X164074184Y-96550707D01*
X164033939Y-96558712D01*
X164033938Y-96558712D01*
X164021769Y-96561133D01*
X163955448Y-96605448D01*
X163911133Y-96671769D01*
X163899500Y-96730252D01*
X163899500Y-96957653D01*
X163879498Y-97025774D01*
X163862595Y-97046748D01*
X163746748Y-97162595D01*
X163684436Y-97196621D01*
X163657653Y-97199500D01*
X160976500Y-97199500D01*
X160908379Y-97179498D01*
X160861886Y-97125842D01*
X160850500Y-97073500D01*
X160850500Y-92884000D01*
X160870502Y-92815879D01*
X160924158Y-92769386D01*
X160976500Y-92758000D01*
X162327885Y-92758000D01*
X162343124Y-92753525D01*
X162344329Y-92752135D01*
X162346000Y-92744452D01*
X162346000Y-89960116D01*
X162341525Y-89944877D01*
X162340135Y-89943672D01*
X162332452Y-89942001D01*
X160980039Y-89942001D01*
X160911918Y-89921999D01*
X160865425Y-89868343D01*
X160854212Y-89822592D01*
X160854161Y-89821626D01*
X160854678Y-89814048D01*
X160843823Y-89751848D01*
X160842860Y-89745324D01*
X160836189Y-89690199D01*
X160836188Y-89690196D01*
X160835276Y-89682658D01*
X160832592Y-89675556D01*
X160831773Y-89672220D01*
X160827817Y-89657763D01*
X160826834Y-89654506D01*
X160825528Y-89647025D01*
X160821813Y-89638561D01*
X160800151Y-89589211D01*
X160797660Y-89583106D01*
X160778033Y-89531167D01*
X160778031Y-89531163D01*
X160775345Y-89524055D01*
X160771040Y-89517791D01*
X160769451Y-89514752D01*
X160762176Y-89501679D01*
X160760431Y-89498728D01*
X160757379Y-89491776D01*
X160718958Y-89441705D01*
X160715081Y-89436369D01*
X160683619Y-89390592D01*
X160683614Y-89390586D01*
X160679312Y-89384327D01*
X160633342Y-89343369D01*
X160628067Y-89338389D01*
X156414604Y-85124925D01*
X156408750Y-85118659D01*
X156376187Y-85081331D01*
X156371191Y-85075604D01*
X156319549Y-85039310D01*
X156314264Y-85035384D01*
X156270546Y-85001105D01*
X156270542Y-85001103D01*
X156264565Y-84996416D01*
X156257642Y-84993290D01*
X156254694Y-84991505D01*
X156241734Y-84984113D01*
X156238688Y-84982480D01*
X156232475Y-84978113D01*
X156173655Y-84955180D01*
X156167576Y-84952624D01*
X156110038Y-84926645D01*
X156102567Y-84925260D01*
X156099299Y-84924236D01*
X156084858Y-84920123D01*
X156081585Y-84919283D01*
X156074509Y-84916524D01*
X156029839Y-84910644D01*
X156011916Y-84908284D01*
X156005399Y-84907252D01*
X155950797Y-84897132D01*
X155943330Y-84895748D01*
X155935750Y-84896185D01*
X155935749Y-84896185D01*
X155881878Y-84899291D01*
X155874626Y-84899500D01*
X155245346Y-84899500D01*
X155177225Y-84879498D01*
X155130732Y-84825842D01*
X155120628Y-84755568D01*
X155150122Y-84690988D01*
X155156251Y-84684405D01*
X156653252Y-83187405D01*
X156715564Y-83153379D01*
X156742347Y-83150500D01*
X159089903Y-83150500D01*
X159158024Y-83170502D01*
X159197298Y-83213234D01*
X159197366Y-83213184D01*
X159202959Y-83220757D01*
X159277850Y-83322150D01*
X159285421Y-83327742D01*
X159379243Y-83397041D01*
X159379246Y-83397042D01*
X159386816Y-83402634D01*
X159514631Y-83447519D01*
X159522277Y-83448242D01*
X159522278Y-83448242D01*
X159528248Y-83448806D01*
X159546166Y-83450500D01*
X162653834Y-83450500D01*
X162671752Y-83448806D01*
X162677722Y-83448242D01*
X162677723Y-83448242D01*
X162685369Y-83447519D01*
X162813184Y-83402634D01*
X162820754Y-83397042D01*
X162820757Y-83397041D01*
X162914579Y-83327742D01*
X162922150Y-83322150D01*
X162997040Y-83220758D01*
X162997041Y-83220757D01*
X162997042Y-83220754D01*
X163002634Y-83213184D01*
X163047519Y-83085369D01*
X163050500Y-83053834D01*
X163050500Y-83047095D01*
X164442001Y-83047095D01*
X164442338Y-83053614D01*
X164452257Y-83149206D01*
X164455149Y-83162600D01*
X164506588Y-83316784D01*
X164512761Y-83329962D01*
X164598063Y-83467807D01*
X164607099Y-83479208D01*
X164721829Y-83593739D01*
X164733240Y-83602751D01*
X164871243Y-83687816D01*
X164884424Y-83693963D01*
X165038710Y-83745138D01*
X165052086Y-83748005D01*
X165146438Y-83757672D01*
X165152854Y-83758000D01*
X166427885Y-83758000D01*
X166443124Y-83753525D01*
X166444329Y-83752135D01*
X166446000Y-83744452D01*
X166446000Y-82722115D01*
X166441525Y-82706876D01*
X166440135Y-82705671D01*
X166432452Y-82704000D01*
X164460116Y-82704000D01*
X164444877Y-82708475D01*
X164443672Y-82709865D01*
X164442001Y-82717548D01*
X164442001Y-83047095D01*
X163050500Y-83047095D01*
X163050500Y-82177885D01*
X164442000Y-82177885D01*
X164446475Y-82193124D01*
X164447865Y-82194329D01*
X164455548Y-82196000D01*
X166427885Y-82196000D01*
X166443124Y-82191525D01*
X166444329Y-82190135D01*
X166446000Y-82182452D01*
X166446000Y-81160116D01*
X166441525Y-81144877D01*
X166440135Y-81143672D01*
X166432452Y-81142001D01*
X165152905Y-81142001D01*
X165146386Y-81142338D01*
X165050794Y-81152257D01*
X165037400Y-81155149D01*
X164883216Y-81206588D01*
X164870038Y-81212761D01*
X164732193Y-81298063D01*
X164720792Y-81307099D01*
X164606261Y-81421829D01*
X164597249Y-81433240D01*
X164512184Y-81571243D01*
X164506037Y-81584424D01*
X164454862Y-81738710D01*
X164451995Y-81752086D01*
X164442328Y-81846438D01*
X164442000Y-81852855D01*
X164442000Y-82177885D01*
X163050500Y-82177885D01*
X163050500Y-81846166D01*
X163047519Y-81814631D01*
X163002634Y-81686816D01*
X162997042Y-81679246D01*
X162997041Y-81679243D01*
X162927742Y-81585421D01*
X162922150Y-81577850D01*
X162868347Y-81538110D01*
X162820757Y-81502959D01*
X162820754Y-81502958D01*
X162813184Y-81497366D01*
X162685369Y-81452481D01*
X162677723Y-81451758D01*
X162677722Y-81451758D01*
X162671752Y-81451194D01*
X162653834Y-81449500D01*
X159546166Y-81449500D01*
X159528248Y-81451194D01*
X159522278Y-81451758D01*
X159522277Y-81451758D01*
X159514631Y-81452481D01*
X159386816Y-81497366D01*
X159379246Y-81502958D01*
X159379243Y-81502959D01*
X159331653Y-81538110D01*
X159277850Y-81577850D01*
X159272258Y-81585421D01*
X159202960Y-81679242D01*
X159202959Y-81679243D01*
X159197366Y-81686816D01*
X159197159Y-81686663D01*
X159151706Y-81733301D01*
X159089903Y-81749500D01*
X156428641Y-81749500D01*
X156420071Y-81749208D01*
X156419211Y-81749149D01*
X156363070Y-81745322D01*
X156355593Y-81746627D01*
X156355590Y-81746627D01*
X156300870Y-81756177D01*
X156294346Y-81757140D01*
X156239221Y-81763811D01*
X156239218Y-81763812D01*
X156231680Y-81764724D01*
X156224578Y-81767408D01*
X156221242Y-81768227D01*
X156206785Y-81772183D01*
X156203528Y-81773166D01*
X156196047Y-81774472D01*
X156189095Y-81777524D01*
X156189094Y-81777524D01*
X156138233Y-81799849D01*
X156132128Y-81802340D01*
X156080189Y-81821967D01*
X156080185Y-81821969D01*
X156073077Y-81824655D01*
X156066813Y-81828960D01*
X156063774Y-81830549D01*
X156050701Y-81837824D01*
X156047750Y-81839569D01*
X156040798Y-81842621D01*
X156034770Y-81847246D01*
X156034769Y-81847247D01*
X155990727Y-81881042D01*
X155985391Y-81884919D01*
X155939614Y-81916381D01*
X155939608Y-81916386D01*
X155933349Y-81920688D01*
X155928294Y-81926362D01*
X155892392Y-81966657D01*
X155887411Y-81971933D01*
X155056994Y-82802350D01*
X154994682Y-82836376D01*
X154923867Y-82831311D01*
X154863134Y-82783257D01*
X154851445Y-82765763D01*
X154851443Y-82765761D01*
X154844552Y-82755448D01*
X154812658Y-82734137D01*
X154788547Y-82718026D01*
X154778231Y-82711133D01*
X154766062Y-82708712D01*
X154766061Y-82708712D01*
X154725816Y-82700707D01*
X154719748Y-82699500D01*
X151780252Y-82699500D01*
X151774184Y-82700707D01*
X151733939Y-82708712D01*
X151733938Y-82708712D01*
X151721769Y-82711133D01*
X151711453Y-82718026D01*
X151687342Y-82734137D01*
X151655448Y-82755448D01*
X151611133Y-82821769D01*
X151599500Y-82880252D01*
X151599500Y-88319748D01*
X151611133Y-88378231D01*
X151655448Y-88444552D01*
X151721769Y-88488867D01*
X151733938Y-88491288D01*
X151733939Y-88491288D01*
X151774184Y-88499293D01*
X151780252Y-88500500D01*
X154719748Y-88500500D01*
X154725816Y-88499293D01*
X154766061Y-88491288D01*
X154766062Y-88491288D01*
X154778231Y-88488867D01*
X154844552Y-88444552D01*
X154888867Y-88378231D01*
X154900500Y-88319748D01*
X154900500Y-86426500D01*
X154920502Y-86358379D01*
X154974158Y-86311886D01*
X155026500Y-86300500D01*
X155556676Y-86300500D01*
X155624797Y-86320502D01*
X155645771Y-86337405D01*
X159342770Y-90034405D01*
X159376796Y-90096717D01*
X159371731Y-90167533D01*
X159329184Y-90224368D01*
X159262664Y-90249179D01*
X159253675Y-90249500D01*
X155830252Y-90249500D01*
X155824184Y-90250707D01*
X155783939Y-90258712D01*
X155783938Y-90258712D01*
X155771769Y-90261133D01*
X155705448Y-90305448D01*
X155661133Y-90371769D01*
X155649500Y-90430252D01*
X155649500Y-90523500D01*
X155629498Y-90591621D01*
X155575842Y-90638114D01*
X155523500Y-90649500D01*
X149642346Y-90649500D01*
X149574225Y-90629498D01*
X149553251Y-90612595D01*
X145237405Y-86296748D01*
X145203379Y-86234436D01*
X145200500Y-86207653D01*
X145200500Y-82880252D01*
X145188867Y-82821769D01*
X145144552Y-82755448D01*
X145112658Y-82734137D01*
X145088547Y-82718026D01*
X145078231Y-82711133D01*
X145066062Y-82708712D01*
X145066061Y-82708712D01*
X145025816Y-82700707D01*
X145019748Y-82699500D01*
X142080252Y-82699500D01*
X142074184Y-82700707D01*
X142033939Y-82708712D01*
X142033938Y-82708712D01*
X142021769Y-82711133D01*
X142011453Y-82718026D01*
X141987342Y-82734137D01*
X141955448Y-82755448D01*
X141911133Y-82821769D01*
X141899500Y-82880252D01*
X141899500Y-88319748D01*
X140968183Y-88319748D01*
X140950726Y-78526725D01*
X140970607Y-78458568D01*
X141024179Y-78411980D01*
X141076726Y-78400500D01*
X168973500Y-78400500D01*
X169041621Y-78420502D01*
G37*
%TD.AperFunction*%
%TA.AperFunction,Conductor*%
G36*
X164971796Y-98170502D02*
G01*
X165018289Y-98224158D01*
X165028393Y-98294432D01*
X164998899Y-98359012D01*
X164992770Y-98365595D01*
X161945770Y-101412595D01*
X161883458Y-101446621D01*
X161856675Y-101449500D01*
X159596166Y-101449500D01*
X159578248Y-101451194D01*
X159572278Y-101451758D01*
X159572277Y-101451758D01*
X159564631Y-101452481D01*
X159436816Y-101497366D01*
X159429246Y-101502958D01*
X159429243Y-101502959D01*
X159344794Y-101565335D01*
X159327850Y-101577850D01*
X159322258Y-101585421D01*
X159252959Y-101679243D01*
X159252958Y-101679246D01*
X159247366Y-101686816D01*
X159202481Y-101814631D01*
X159199500Y-101846166D01*
X159199500Y-102173500D01*
X159179498Y-102241621D01*
X159125842Y-102288114D01*
X159073500Y-102299500D01*
X158498872Y-102299500D01*
X158428871Y-102278266D01*
X158403231Y-102261133D01*
X158403047Y-102261096D01*
X158354358Y-102221858D01*
X158331939Y-102154494D01*
X158349499Y-102085703D01*
X158398876Y-102039733D01*
X158403231Y-102038867D01*
X158413548Y-102031974D01*
X158413549Y-102031973D01*
X158459239Y-102001443D01*
X158469552Y-101994552D01*
X158513867Y-101928231D01*
X158516323Y-101915887D01*
X158524293Y-101875816D01*
X158525500Y-101869748D01*
X158525500Y-100730252D01*
X158524293Y-100724184D01*
X158523686Y-100718021D01*
X158525048Y-100717887D01*
X158530754Y-100654131D01*
X158572439Y-100599440D01*
X158680724Y-100518285D01*
X158693285Y-100505724D01*
X158769786Y-100403649D01*
X158778324Y-100388054D01*
X158823478Y-100267606D01*
X158827105Y-100252351D01*
X158832631Y-100201486D01*
X158833000Y-100194672D01*
X158833000Y-99872115D01*
X158828525Y-99856876D01*
X158827135Y-99855671D01*
X158819452Y-99854000D01*
X155897000Y-99854000D01*
X155828879Y-99833998D01*
X155782386Y-99780342D01*
X155771000Y-99728000D01*
X155771000Y-99472000D01*
X155791002Y-99403879D01*
X155844658Y-99357386D01*
X155897000Y-99346000D01*
X158814884Y-99346000D01*
X158830123Y-99341525D01*
X158831328Y-99340135D01*
X158832999Y-99332452D01*
X158832999Y-99005331D01*
X158832629Y-98998510D01*
X158827105Y-98947648D01*
X158823479Y-98932396D01*
X158778324Y-98811946D01*
X158765478Y-98788483D01*
X158768397Y-98786885D01*
X158749220Y-98735561D01*
X158764272Y-98666178D01*
X158814445Y-98615947D01*
X158874894Y-98600500D01*
X159471359Y-98600500D01*
X159479929Y-98600792D01*
X159529354Y-98604162D01*
X159529358Y-98604162D01*
X159536930Y-98604678D01*
X159550120Y-98602376D01*
X159571783Y-98600500D01*
X163971359Y-98600500D01*
X163979929Y-98600792D01*
X164029354Y-98604162D01*
X164029358Y-98604162D01*
X164036930Y-98604678D01*
X164044406Y-98603373D01*
X164044409Y-98603373D01*
X164099132Y-98593822D01*
X164105658Y-98592859D01*
X164146096Y-98587965D01*
X164168320Y-98585276D01*
X164175427Y-98582591D01*
X164178720Y-98581782D01*
X164193191Y-98577823D01*
X164196467Y-98576834D01*
X164203954Y-98575527D01*
X164210914Y-98572472D01*
X164261760Y-98550153D01*
X164267866Y-98547661D01*
X164319818Y-98528030D01*
X164319820Y-98528029D01*
X164326923Y-98525345D01*
X164333178Y-98521046D01*
X164336203Y-98519465D01*
X164349299Y-98512175D01*
X164352243Y-98510434D01*
X164359202Y-98507379D01*
X164409273Y-98468958D01*
X164414609Y-98465081D01*
X164460386Y-98433619D01*
X164460392Y-98433614D01*
X164466651Y-98429312D01*
X164507609Y-98383342D01*
X164512589Y-98378067D01*
X164703251Y-98187405D01*
X164765563Y-98153379D01*
X164792346Y-98150500D01*
X164903675Y-98150500D01*
X164971796Y-98170502D01*
G37*
%TD.AperFunction*%
%TA.AperFunction,Conductor*%
G36*
X159391621Y-92470502D02*
G01*
X159438114Y-92524158D01*
X159449500Y-92576500D01*
X159449500Y-96907653D01*
X159429498Y-96975774D01*
X159412595Y-96996749D01*
X159246747Y-97162596D01*
X159184435Y-97196621D01*
X159157652Y-97199500D01*
X158874894Y-97199500D01*
X158806773Y-97179498D01*
X158760280Y-97125842D01*
X158750176Y-97055568D01*
X158767890Y-97012838D01*
X158765478Y-97011517D01*
X158778324Y-96988054D01*
X158823478Y-96867606D01*
X158827105Y-96852351D01*
X158832631Y-96801486D01*
X158833000Y-96794672D01*
X158833000Y-96472115D01*
X158828525Y-96456876D01*
X158827135Y-96455671D01*
X158819452Y-96454000D01*
X155897000Y-96454000D01*
X155828879Y-96433998D01*
X155782386Y-96380342D01*
X155771000Y-96328000D01*
X155771000Y-95927885D01*
X156279000Y-95927885D01*
X156283475Y-95943124D01*
X156284865Y-95944329D01*
X156292548Y-95946000D01*
X158814884Y-95946000D01*
X158830123Y-95941525D01*
X158831328Y-95940135D01*
X158832999Y-95932452D01*
X158832999Y-95605331D01*
X158832629Y-95598510D01*
X158827105Y-95547648D01*
X158823479Y-95532396D01*
X158778324Y-95411946D01*
X158769786Y-95396351D01*
X158693285Y-95294276D01*
X158680724Y-95281715D01*
X158578649Y-95205214D01*
X158563054Y-95196676D01*
X158442606Y-95151522D01*
X158427351Y-95147895D01*
X158376486Y-95142369D01*
X158369672Y-95142000D01*
X156297115Y-95142000D01*
X156281876Y-95146475D01*
X156280671Y-95147865D01*
X156279000Y-95155548D01*
X156279000Y-95927885D01*
X155771000Y-95927885D01*
X155771000Y-95160116D01*
X155766525Y-95144877D01*
X155765135Y-95143672D01*
X155757452Y-95142001D01*
X154252845Y-95142001D01*
X154184724Y-95121999D01*
X154138231Y-95068343D01*
X154128127Y-94998069D01*
X154157621Y-94933489D01*
X154163750Y-94926906D01*
X155202679Y-93887978D01*
X156603252Y-92487405D01*
X156665564Y-92453379D01*
X156692347Y-92450500D01*
X159323500Y-92450500D01*
X159391621Y-92470502D01*
G37*
%TD.AperFunction*%
%TD*%
M02*
